<svg id="sprite" xmlns="http://www.w3.org/2000/svg" version="1.0">

	<symbol id="icon-right" viewBox="0 0 100 100">
		<path d="M32.59,78.41a2,2,0,0,0,2.83,0l29-29a2,2,0,0,0,0-2.83l-29-29a2,2,0,0,0-2.83,2.83L60.17,48,32.59,75.59A2,2,0,0,0,32.59,78.41Z"/>
	</symbol>

	<symbol id="icon-left" viewBox="0 0 96 96">
		<path d="M61.59,78.41a2,2,0,0,0,2.83-2.83L36.83,48,64.41,20.41a2,2,0,0,0-2.83-2.83l-29,29a2,2,0,0,0,0,2.83Z"/>
	</symbol>

	<symbol id="icon-search" xmlns="http://www.w3.org/2000/svg" xmlns:xlink="http://www.w3.org/1999/xlink" version="1.1" x="0px" y="0px" viewBox="0 0 100 125" style="enable-background:new 0 0 100 100;" xml:space="preserve">
		<path d="M95.2,88.9L77.7,71.2c6-7.5,9.3-16.7,9.3-26.1c0-23-18.7-41.8-41.8-41.8c-23,0-41.8,18.8-41.8,41.9  c0,23,18.7,41.8,41.8,41.8c9.5,0,18.8-3.3,26.1-9.3l17.5,17.5c0.9,0.9,2,1.3,3.2,1.3s2.3-0.5,3.2-1.3c0.9-0.9,1.3-2,1.3-3.2  S96.1,89.7,95.2,88.9z M45.2,77.8c-18,0-32.7-14.6-32.7-32.6c0-18,14.7-32.7,32.7-32.7c18,0,32.7,14.7,32.7,32.7  C77.9,63.2,63.2,77.8,45.2,77.8z"/>
	</symbol>

	<symbol id="icon-comment" viewBox="0 0 32 32" version="1.1" xmlns="http://www.w3.org/2000/svg" xmlns:xlink="http://www.w3.org/1999/xlink">
		<g stroke="none" stroke-width="1" fill="none" fill-rule="evenodd">
			<g  fill-rule="nonzero" fill="currentColor">
				<path d="M0,13.4681204 C0,20.8945417 6.71310979,26.9362408 14.9645782,26.9362408 C17.0910448,26.9362408 19.1441849,26.5421736 21.0716226,25.7645143 C24.4665866,27.7238764 29.1589795,28.3997765 29.3610013,28.4277104 C29.3844458,28.4312021 29.4073915,28.4326986 29.4303371,28.4326986 C29.6173944,28.4326986 29.7919811,28.3274477 29.8767804,28.1563527 C29.9725537,27.9648061 29.9346434,27.7328552 29.7830024,27.5812141 C28.635718,26.4339298 27.8455883,24.0136587 27.5507861,20.7528771 C29.1080999,18.5785238 29.9291564,16.0639759 29.9291564,13.4681204 C29.9291564,6.04169904 23.2160466,0 14.9645782,0 C6.71310979,0 0,6.04169904 0,13.4681204 Z M19.9527709,13.4681204 C19.9527709,12.3677251 20.8476527,11.4728433 21.948048,11.4728433 C23.0484434,11.4728433 23.9433251,12.3677251 23.9433251,13.4681204 C23.9433251,14.5685157 23.0484434,15.4633975 21.948048,15.4633975 C20.8476527,15.4633975 19.9527709,14.5685157 19.9527709,13.4681204 Z M12.9693011,13.4681204 C12.9693011,12.3677251 13.8641829,11.4728433 14.9645782,11.4728433 C16.0649735,11.4728433 16.9598553,12.3677251 16.9598553,13.4681204 C16.9598553,14.5685157 16.0649735,15.4633975 14.9645782,15.4633975 C13.8641829,15.4633975 12.9693011,14.5685157 12.9693011,13.4681204 Z M5.98583128,13.4681204 C5.98583128,12.3677251 6.88071306,11.4728433 7.98110838,11.4728433 C9.0815037,11.4728433 9.97638547,12.3677251 9.97638547,13.4681204 C9.97638547,14.5685157 9.0815037,15.4633975 7.98110838,15.4633975 C6.88071306,15.4633975 5.98583128,14.5685157 5.98583128,13.4681204 Z" id="Shape"></path>
			</g>
		</g>
	</symbol>

	<symbol id="icon-heart" viewBox="0 0 29 29">
		<path d="M19.5 4c-1.948 0-3.77.898-5 2.434C13.27 4.898 11.448 4 9.5 4 5.916 4 3 7.02 3 10.734c0 4.793 6.227 10 9.95 13.11.296.25.853.723 1.212 1.03.196.166.48.166.677 0 .39-.332 1.02-.87 1.37-1.158 3.66-3.022 9.79-8.08 9.79-12.982C26 7.02 23.08 4 19.5 4z" fill-rule="evenodd"></path>
	</symbol>

	<symbol id="icon-chain" viewBox="0 0 30 32">
		<path class="path1" d="M26 21.714q0-0.714-0.5-1.214l-3.714-3.714q-0.5-0.5-1.214-0.5-0.75 0-1.286 0.571 0.054 0.054 0.339 0.33t0.384 0.384 0.268 0.339 0.232 0.455 0.063 0.491q0 0.714-0.5 1.214t-1.214 0.5q-0.268 0-0.491-0.063t-0.455-0.232-0.339-0.268-0.384-0.384-0.33-0.339q-0.589 0.554-0.589 1.304 0 0.714 0.5 1.214l3.679 3.696q0.482 0.482 1.214 0.482 0.714 0 1.214-0.464l2.625-2.607q0.5-0.5 0.5-1.196zM13.446 9.125q0-0.714-0.5-1.214l-3.679-3.696q-0.5-0.5-1.214-0.5-0.696 0-1.214 0.482l-2.625 2.607q-0.5 0.5-0.5 1.196 0 0.714 0.5 1.214l3.714 3.714q0.482 0.482 1.214 0.482 0.75 0 1.286-0.554-0.054-0.054-0.339-0.33t-0.384-0.384-0.268-0.339-0.232-0.455-0.063-0.491q0-0.714 0.5-1.214t1.214-0.5q0.268 0 0.491 0.063t0.455 0.232 0.339 0.268 0.384 0.384 0.33 0.339q0.589-0.554 0.589-1.304zM29.429 21.714q0 2.143-1.518 3.625l-2.625 2.607q-1.482 1.482-3.625 1.482-2.161 0-3.643-1.518l-3.679-3.696q-1.482-1.482-1.482-3.625 0-2.196 1.571-3.732l-1.571-1.571q-1.536 1.571-3.714 1.571-2.143 0-3.643-1.5l-3.714-3.714q-1.5-1.5-1.5-3.643t1.518-3.625l2.625-2.607q1.482-1.482 3.625-1.482 2.161 0 3.643 1.518l3.679 3.696q1.482 1.482 1.482 3.625 0 2.196-1.571 3.732l1.571 1.571q1.536-1.571 3.714-1.571 2.143 0 3.643 1.5l3.714 3.714q1.5 1.5 1.5 3.643z"></path>
	</symbol>

</svg>